<svg xmlns="http://www.w3.org/2000/svg" xmlns:xlink="http://www.w3.org/1999/xlink" version="1.1" x="0px" y="0px" viewBox="0 0 90 112.5" enable-background="new 0 0 90 90" xml:space="preserve"><path d="M46.309,45l23.713-23.713c0.361-0.361,0.361-0.947,0-1.309c-0.361-0.361-0.947-0.361-1.309,0L45,43.691L21.287,19.978  c-0.361-0.361-0.947-0.361-1.309,0c-0.361,0.362-0.361,0.947,0,1.309L43.691,45L19.979,68.714c-0.361,0.361-0.361,0.947,0,1.309  c0.181,0.181,0.417,0.271,0.654,0.271s0.474-0.09,0.654-0.271L45,46.309l23.713,23.714c0.181,0.181,0.418,0.271,0.654,0.271  s0.474-0.09,0.654-0.271c0.361-0.361,0.361-0.947,0-1.309L46.309,45z"/><path d="M25.38,60.483l1.431-1.431C23.799,55.163,22,50.289,22,45s1.799-10.163,4.811-14.052l-1.431-1.432  C22.014,33.775,20,39.15,20,45S22.015,56.225,25.38,60.483z"/><path d="M30.948,26.811C34.837,23.799,39.711,22,45,22c5.289,0,10.162,1.799,14.052,4.811l1.432-1.431C56.225,22.014,50.85,20,45,20  c-5.849,0-11.225,2.014-15.483,5.379L30.948,26.811z"/><path d="M59.052,63.189C55.162,66.201,50.289,68,45,68c-5.289,0-10.163-1.799-14.052-4.811l-1.431,1.431  C33.775,67.985,39.151,70,45,70c5.85,0,11.225-2.015,15.483-5.379L59.052,63.189z"/><path d="M64.62,29.516l-1.431,1.431C66.201,34.837,68,39.711,68,45s-1.799,10.163-4.812,14.053l1.432,1.432  C67.985,56.226,70,50.85,70,45S67.985,33.775,64.62,29.516z"/><text x="0" y="105" fill="#000000" font-size="5px" font-weight="bold" font-family="'Helvetica Neue', Helvetica, Arial-Unicode, Arial, Sans-serif">Created by José Manuel de Laá</text><text x="0" y="110" fill="#000000" font-size="5px" font-weight="bold" font-family="'Helvetica Neue', Helvetica, Arial-Unicode, Arial, Sans-serif">from the Noun Project</text></svg>