<svg xmlns="http://www.w3.org/2000/svg" style="position:absolute; width: 0; height: 0"><symbol viewbox="0 0 44 55" id="icon-grid_list"><path d="M41 33H3c-.6 0-1 .4-1 1s.4 1 1 1h38c.6 0 1-.4 1-1s-.4-1-1-1zM3 11h38c.6 0 1-.4 1-1s-.4-1-1-1H3c-.6 0-1 .4-1 1s.4 1 1 1zm38 10H3c-.6 0-1 .4-1 1s.4 1 1 1h38c.6 0 1-.4 1-1s-.4-1-1-1z"></path></symbol><symbol viewbox="0 0 100 100" id="icon-grid_tiles"><path d="M41.9 7.016h17.2a2.868 2.868 0 0 1 2.867 2.867v17.2A2.867 2.867 0 0 1 59.1 29.95H41.9a2.866 2.866 0 0 1-2.867-2.867v-17.2A2.866 2.866 0 0 1 41.9 7.016zm31.534 0h17.2A2.868 2.868 0 0 1 93.5 9.883v17.2a2.867 2.867 0 0 1-2.866 2.866h-17.2a2.865 2.865 0 0 1-2.867-2.868v-17.2a2.866 2.866 0 0 1 2.867-2.867zm-63.067 0h17.2a2.868 2.868 0 0 1 2.867 2.867v17.2a2.867 2.867 0 0 1-2.867 2.866h-17.2A2.866 2.866 0 0 1 7.5 27.08v-17.2a2.866 2.866 0 0 1 2.867-2.867zM41.9 38.55h17.2a2.867 2.867 0 0 1 2.867 2.866v17.2A2.867 2.867 0 0 1 59.1 61.48H41.9a2.866 2.866 0 0 1-2.867-2.867v-17.2A2.866 2.866 0 0 1 41.9 38.55zm31.534 0h17.2a2.867 2.867 0 0 1 2.866 2.866v17.2a2.867 2.867 0 0 1-2.866 2.866h-17.2a2.865 2.865 0 0 1-2.867-2.867v-17.2a2.865 2.865 0 0 1 2.867-2.866zm-63.067 0h17.2a2.867 2.867 0 0 1 2.867 2.866v17.2a2.867 2.867 0 0 1-2.867 2.866h-17.2A2.866 2.866 0 0 1 7.5 58.615v-17.2a2.866 2.866 0 0 1 2.867-2.866zM41.9 70.082h17.2a2.867 2.867 0 0 1 2.867 2.867v17.197a2.867 2.867 0 0 1-2.867 2.867H41.9a2.866 2.866 0 0 1-2.867-2.867v-17.2A2.865 2.865 0 0 1 41.9 70.08zm31.534 0h17.2A2.867 2.867 0 0 1 93.5 72.95v17.198a2.867 2.867 0 0 1-2.866 2.867h-17.2a2.865 2.865 0 0 1-2.867-2.867v-17.2a2.864 2.864 0 0 1 2.867-2.866zm-63.067 0h17.2a2.867 2.867 0 0 1 2.867 2.867v17.197a2.867 2.867 0 0 1-2.867 2.867h-17.2A2.866 2.866 0 0 1 7.5 90.148v-17.2a2.865 2.865 0 0 1 2.867-2.866z" fill-rule="evenodd" clip-rule="evenodd"></path></symbol></svg>